ffmpeg started on 2025-05-12 at 15:22:01
Report written to "D:\Convert\FFMetrics\reports\psnr_report-6.txt"
Log level: 32
Command line:
ffmpeg -hide_banner -nostdin -i "G:\\\xc0\xed\xe8\xec\xe5\\\xce\xed\xe3\xee\xe8\xed\xe3\xe8\\!_35_\xcb\xe5\xf2\xee_2024\\DreamCast\\\xc6\xe8\xe7\xed\xfc \xf1 \xec\xee\xe5\xe9 \xf1\xe2\xee\xe4\xed\xee\xe9 \xf1\xe5\xf1\xf2\xf0\xee\xe9\\[DC] Gimai Seikatsu - 09_Telegram_HEVC.mkv" -i "G:\\\xc0\xed\xe8\xec\xe5\\\xce\xed\xe3\xee\xe8\xed\xe3\xe8\\!_35_\xcb\xe5\xf2\xee_2024\\DreamCast\\\xc6\xe8\xe7\xed\xfc \xf1 \xec\xee\xe5\xe9 \xf1\xe2\xee\xe4\xed\xee\xe9 \xf1\xe5\xf1\xf2\xf0\xee\xe9\\[DC] Gimai Seikatsu - 09_Telegram.mp4" -lavfi "[0:v]settb=AVTB,setpts=PTS-STARTPTS,format=pix_fmts=yuv420p10,fps=24000/1001,scale=1920:1080:flags=bicubic[main];[1:v]settb=AVTB,setpts=PTS-STARTPTS,format=pix_fmts=yuv420p,fps=24000/1001,scale=1920:1080:flags=bicubic[ref];[main][ref]psnr=eof_action=endall:stats_file='D\\:/Convert/FFMetrics/logs/psnr_logfile-6.txt'" -f null -
Input #0, matroska,webm, from 'G:\Аниме\Онгоинги\!_35_Лето_2024\DreamCast\Жизнь с моей сводной сестрой\[DC] Gimai Seikatsu - 09_Telegram_HEVC.mkv':
  Metadata:
    COMPATIBLE_BRANDS: isomiso2avc1mp41
    MAJOR_BRAND     : isom
    MINOR_VERSION   : 512
    ENCODER         : Lavf61.7.100
  Duration: 00:23:56.67, start: -0.021000, bitrate: 1219 kb/s
  Stream #0:0: Video: hevc (Main 10), yuv420p10le(tv, bt709, progressive), 1920x1080 [SAR 1:1 DAR 16:9], 23.98 fps, 23.98 tbr, 1k tbn (default)
      Metadata:
        HANDLER_NAME    : VideoHandler
        VENDOR_ID       : [0][0][0][0]
        ENCODER         : Lavc61.19.100 libx265
        BPS             : 1022074
        DURATION        : 00:23:56.559708333
        NUMBER_OF_FRAMES: 34443
        NUMBER_OF_BYTES : 183533859
        _STATISTICS_WRITING_APP: mkvpropedit v66.0.0 ('Josie') 64-bit
        _STATISTICS_WRITING_DATE_UTC: 2025-05-07 13:51:33
        _STATISTICS_TAGS: BPS DURATION NUMBER_OF_FRAMES NUMBER_OF_BYTES
  Stream #0:1: Audio: aac (LC), 48000 Hz, stereo, fltp (default)
      Metadata:
        HANDLER_NAME    : SoundHandler
        VENDOR_ID       : [0][0][0][0]
        ENCODER         : Lavc61.19.100 aac
        BPS             : 193314
        DURATION        : 00:23:56.672000000
        NUMBER_OF_FRAMES: 67345
        NUMBER_OF_BYTES : 34716202
        _STATISTICS_WRITING_APP: mkvpropedit v66.0.0 ('Josie') 64-bit
        _STATISTICS_WRITING_DATE_UTC: 2025-05-07 13:51:33
        _STATISTICS_TAGS: BPS DURATION NUMBER_OF_FRAMES NUMBER_OF_BYTES
Input #1, mov,mp4,m4a,3gp,3g2,mj2, from 'G:\Аниме\Онгоинги\!_35_Лето_2024\DreamCast\Жизнь с моей сводной сестрой\[DC] Gimai Seikatsu - 09_Telegram.mp4':
  Metadata:
    major_brand     : isom
    minor_version   : 512
    compatible_brands: isomiso2avc1mp41
    encoder         : Lavf61.1.100
  Duration: 00:23:56.63, start: 0.000000, bitrate: 3862 kb/s
  Stream #1:0[0x1](und): Video: h264 (High) (avc1 / 0x31637661), yuv420p(tv, bt709, progressive), 1920x1080 [SAR 1:1 DAR 16:9], 3715 kb/s, 23.98 fps, 23.98 tbr, 24k tbn (default)
      Metadata:
        handler_name    : VideoHandler
        vendor_id       : [0][0][0][0]
        encoder         : Lavc61.3.100 h264_qsv
  Stream #1:1[0x2](und): Audio: aac (HE-AACv2) (mp4a / 0x6134706D), 48000 Hz, stereo, fltp, 144 kb/s (default)
      Metadata:
        handler_name    : SoundHandler
        vendor_id       : [0][0][0][0]
Stream mapping:
  Stream #0:0 (hevc) -> settb:default
  Stream #1:0 (h264) -> settb:default
  psnr:default -> Stream #0:0 (wrapped_avframe)
  Stream #0:1 -> #0:1 (aac (native) -> pcm_s16le (native))
Output #0, null, to 'pipe:':
  Metadata:
    COMPATIBLE_BRANDS: isomiso2avc1mp41
    MAJOR_BRAND     : isom
    MINOR_VERSION   : 512
    encoder         : Lavf61.7.100
  Stream #0:0: Video: wrapped_avframe, yuv420p10le(tv, bt709, progressive), 1920x1080 [SAR 1:1 DAR 16:9], q=2-31, 200 kb/s, 23.98 fps, 23.98 tbn
      Metadata:
        encoder         : Lavc61.19.100 wrapped_avframe
  Stream #0:1: Audio: pcm_s16le, 48000 Hz, stereo, s16, 1536 kb/s (default)
      Metadata:
        HANDLER_NAME    : SoundHandler
        VENDOR_ID       : [0][0][0][0]
        _STATISTICS_TAGS: BPS DURATION NUMBER_OF_FRAMES NUMBER_OF_BYTES
        BPS             : 193314
        DURATION        : 00:23:56.672000000
        NUMBER_OF_FRAMES: 67345
        NUMBER_OF_BYTES : 34716202
        _STATISTICS_WRITING_APP: mkvpropedit v66.0.0 ('Josie') 64-bit
        _STATISTICS_WRITING_DATE_UTC: 2025-05-07 13:51:33
        encoder         : Lavc61.19.100 pcm_s16le
frame=  164 fps=0.0 q=-0.0 size=N/A time=00:00:06.84 bitrate=N/A speed=13.3x    frame=  383 fps=374 q=-0.0 size=N/A time=00:00:15.97 bitrate=N/A speed=15.6x    frame=  622 fps=402 q=-0.0 size=N/A time=00:00:25.94 bitrate=N/A speed=16.8x    frame=  852 fps=415 q=-0.0 size=N/A time=00:00:35.53 bitrate=N/A speed=17.3x    frame= 1090 fps=423 q=-0.0 size=N/A time=00:00:45.46 bitrate=N/A speed=17.6x    frame= 1341 fps=434 q=-0.0 size=N/A time=00:00:55.93 bitrate=N/A speed=18.1x    frame= 1554 fps=432 q=-0.0 size=N/A time=00:01:04.81 bitrate=N/A speed=  18x    frame= 1786 fps=433 q=-0.0 size=N/A time=00:01:14.49 bitrate=N/A speed=18.1x    frame= 2020 fps=435 q=-0.0 size=N/A time=00:01:24.25 bitrate=N/A speed=18.2x    frame= 2235 fps=434 q=-0.0 size=N/A time=00:01:33.21 bitrate=N/A speed=18.1x    frame= 2458 fps=434 q=-0.0 size=N/A time=00:01:42.51 bitrate=N/A speed=18.1x    frame= 2709 fps=438 q=-0.0 size=N/A time=00:01:52.98 bitrate=N/A speed=18.3x    frame= 2960 fps=442 q=-0.0 size=N/A time=00:02:03.45 bitrate=N/A speed=18.5x    frame= 3220 fps=446 q=-0.0 size=N/A time=00:02:14.30 bitrate=N/A speed=18.6x    frame= 3455 fps=447 q=-0.0 size=N/A time=00:02:24.10 bitrate=N/A speed=18.6x    frame= 3666 fps=445 q=-0.0 size=N/A time=00:02:32.90 bitrate=N/A speed=18.5x    frame= 3891 fps=444 q=-0.0 size=N/A time=00:02:42.28 bitrate=N/A speed=18.5x    frame= 4144 fps=447 q=-0.0 size=N/A time=00:02:52.83 bitrate=N/A speed=18.6x    frame= 4404 fps=449 q=-0.0 size=N/A time=00:03:03.68 bitrate=N/A speed=18.7x    frame= 4640 fps=450 q=-0.0 size=N/A time=00:03:13.52 bitrate=N/A speed=18.8x    frame= 4882 fps=451 q=-0.0 size=N/A time=00:03:23.62 bitrate=N/A speed=18.8x    frame= 5115 fps=451 q=-0.0 size=N/A time=00:03:33.33 bitrate=N/A speed=18.8x    frame= 5334 fps=450 q=-0.0 size=N/A time=00:03:42.47 bitrate=N/A speed=18.8x    frame= 5567 fps=450 q=-0.0 size=N/A time=00:03:52.19 bitrate=N/A speed=18.8x    frame= 5788 fps=449 q=-0.0 size=N/A time=00:04:01.40 bitrate=N/A speed=18.7x    frame= 6016 fps=449 q=-0.0 size=N/A time=00:04:10.91 bitrate=N/A speed=18.7x    frame= 6195 fps=445 q=-0.0 size=N/A time=00:04:18.38 bitrate=N/A speed=18.6x    frame= 6360 fps=441 q=-0.0 size=N/A time=00:04:25.26 bitrate=N/A speed=18.4x    frame= 6568 fps=439 q=-0.0 size=N/A time=00:04:33.94 bitrate=N/A speed=18.3x    frame= 6780 fps=439 q=-0.0 size=N/A time=00:04:42.78 bitrate=N/A speed=18.3x    frame= 6984 fps=437 q=-0.0 size=N/A time=00:04:51.29 bitrate=N/A speed=18.2x    frame= 7136 fps=433 q=-0.0 size=N/A time=00:04:57.63 bitrate=N/A speed=  18x    frame= 7268 fps=427 q=-0.0 size=N/A time=00:05:03.13 bitrate=N/A speed=17.8x    frame= 7476 fps=427 q=-0.0 size=N/A time=00:05:11.81 bitrate=N/A speed=17.8x    frame= 7715 fps=427 q=-0.0 size=N/A time=00:05:21.77 bitrate=N/A speed=17.8x    frame= 7927 fps=427 q=-0.0 size=N/A time=00:05:30.62 bitrate=N/A speed=17.8x    frame= 8170 fps=428 q=-0.0 size=N/A time=00:05:40.75 bitrate=N/A speed=17.9x    frame= 8386 fps=428 q=-0.0 size=N/A time=00:05:49.76 bitrate=N/A speed=17.8x    frame= 8630 fps=429 q=-0.0 size=N/A time=00:05:59.94 bitrate=N/A speed=17.9x    frame= 8882 fps=431 q=-0.0 size=N/A time=00:06:10.45 bitrate=N/A speed=  18x    frame= 9025 fps=427 q=-0.0 size=N/A time=00:06:16.41 bitrate=N/A speed=17.8x    frame= 9212 fps=425 q=-0.0 size=N/A time=00:06:24.21 bitrate=N/A speed=17.7x    frame= 9454 fps=427 q=-0.0 size=N/A time=00:06:34.31 bitrate=N/A speed=17.8x    frame= 9717 fps=428 q=-0.0 size=N/A time=00:06:45.27 bitrate=N/A speed=17.9x    frame= 9961 fps=429 q=-0.0 size=N/A time=00:06:55.45 bitrate=N/A speed=17.9x    frame=10196 fps=430 q=-0.0 size=N/A time=00:07:05.25 bitrate=N/A speed=17.9x    frame=10429 fps=431 q=-0.0 size=N/A time=00:07:14.97 bitrate=N/A speed=  18x    frame=10641 fps=430 q=-0.0 size=N/A time=00:07:23.81 bitrate=N/A speed=17.9x    frame=10880 fps=431 q=-0.0 size=N/A time=00:07:33.78 bitrate=N/A speed=  18x    frame=11105 fps=431 q=-0.0 size=N/A time=00:07:43.17 bitrate=N/A speed=  18x    frame=11340 fps=431 q=-0.0 size=N/A time=00:07:52.97 bitrate=N/A speed=  18x    frame=11590 fps=432 q=-0.0 size=N/A time=00:08:03.39 bitrate=N/A speed=  18x    frame=11831 fps=433 q=-0.0 size=N/A time=00:08:13.45 bitrate=N/A speed=18.1x    frame=12100 fps=435 q=-0.0 size=N/A time=00:08:24.67 bitrate=N/A speed=18.1x    frame=12360 fps=436 q=-0.0 size=N/A time=00:08:35.51 bitrate=N/A speed=18.2x    frame=12612 fps=437 q=-0.0 size=N/A time=00:08:46.02 bitrate=N/A speed=18.2x    frame=12833 fps=437 q=-0.0 size=N/A time=00:08:55.24 bitrate=N/A speed=18.2x    frame=13060 fps=437 q=-0.0 size=N/A time=00:09:04.71 bitrate=N/A speed=18.2x    frame=13285 fps=437 q=-0.0 size=N/A time=00:09:14.09 bitrate=N/A speed=18.2x    frame=13521 fps=437 q=-0.0 size=N/A time=00:09:23.93 bitrate=N/A speed=18.2x    frame=13765 fps=438 q=-0.0 size=N/A time=00:09:34.11 bitrate=N/A speed=18.3x    frame=14003 fps=438 q=-0.0 size=N/A time=00:09:44.04 bitrate=N/A speed=18.3x    frame=14232 fps=438 q=-0.0 size=N/A time=00:09:53.59 bitrate=N/A speed=18.3x    frame=14450 fps=438 q=-0.0 size=N/A time=00:10:02.68 bitrate=N/A speed=18.3x    frame=14697 fps=439 q=-0.0 size=N/A time=00:10:12.98 bitrate=N/A speed=18.3x    frame=14930 fps=439 q=-0.0 size=N/A time=00:10:22.70 bitrate=N/A speed=18.3x    frame=15187 fps=440 q=-0.0 size=N/A time=00:10:33.42 bitrate=N/A speed=18.3x    frame=15446 fps=441 q=-0.0 size=N/A time=00:10:44.22 bitrate=N/A speed=18.4x    frame=15713 fps=442 q=-0.0 size=N/A time=00:10:55.36 bitrate=N/A speed=18.4x    frame=15975 fps=443 q=-0.0 size=N/A time=00:11:06.29 bitrate=N/A speed=18.5x    frame=16236 fps=444 q=-0.0 size=N/A time=00:11:17.17 bitrate=N/A speed=18.5x    frame=16472 fps=444 q=-0.0 size=N/A time=00:11:27.01 bitrate=N/A speed=18.5x    frame=16696 fps=444 q=-0.0 size=N/A time=00:11:36.36 bitrate=N/A speed=18.5x    frame=16934 fps=444 q=-0.0 size=N/A time=00:11:46.28 bitrate=N/A speed=18.5x    frame=17188 fps=444 q=-0.0 size=N/A time=00:11:56.88 bitrate=N/A speed=18.5x    frame=17421 fps=445 q=-0.0 size=N/A time=00:12:06.60 bitrate=N/A speed=18.5x    frame=17670 fps=445 q=-0.0 size=N/A time=00:12:16.98 bitrate=N/A speed=18.6x    frame=17906 fps=445 q=-0.0 size=N/A time=00:12:26.82 bitrate=N/A speed=18.6x    frame=18146 fps=445 q=-0.0 size=N/A time=00:12:36.83 bitrate=N/A speed=18.6x    frame=18406 fps=446 q=-0.0 size=N/A time=00:12:47.68 bitrate=N/A speed=18.6x    frame=18662 fps=447 q=-0.0 size=N/A time=00:12:58.36 bitrate=N/A speed=18.6x    frame=18930 fps=448 q=-0.0 size=N/A time=00:13:09.53 bitrate=N/A speed=18.7x    frame=19201 fps=449 q=-0.0 size=N/A time=00:13:20.84 bitrate=N/A speed=18.7x    frame=19448 fps=449 q=-0.0 size=N/A time=00:13:31.14 bitrate=N/A speed=18.7x    frame=19707 fps=450 q=-0.0 size=N/A time=00:13:41.94 bitrate=N/A speed=18.8x    frame=19967 fps=450 q=-0.0 size=N/A time=00:13:52.79 bitrate=N/A speed=18.8x    frame=20230 fps=451 q=-0.0 size=N/A time=00:14:03.75 bitrate=N/A speed=18.8x    frame=20462 fps=451 q=-0.0 size=N/A time=00:14:13.43 bitrate=N/A speed=18.8x    frame=20721 fps=452 q=-0.0 size=N/A time=00:14:24.23 bitrate=N/A speed=18.8x    frame=20976 fps=452 q=-0.0 size=N/A time=00:14:34.87 bitrate=N/A speed=18.9x    frame=21258 fps=453 q=-0.0 size=N/A time=00:14:46.63 bitrate=N/A speed=18.9x    frame=21515 fps=454 q=-0.0 size=N/A time=00:14:57.35 bitrate=N/A speed=18.9x    frame=21739 fps=453 q=-0.0 size=N/A time=00:15:06.69 bitrate=N/A speed=18.9x    frame=21986 fps=454 q=-0.0 size=N/A time=00:15:16.99 bitrate=N/A speed=18.9x    frame=22198 fps=453 q=-0.0 size=N/A time=00:15:25.84 bitrate=N/A speed=18.9x    frame=22466 fps=454 q=-0.0 size=N/A time=00:15:37.01 bitrate=N/A speed=18.9x    frame=22698 fps=454 q=-0.0 size=N/A time=00:15:46.69 bitrate=N/A speed=18.9x    frame=22923 fps=454 q=-0.0 size=N/A time=00:15:56.08 bitrate=N/A speed=18.9x    frame=23152 fps=454 q=-0.0 size=N/A time=00:16:05.63 bitrate=N/A speed=18.9x    frame=23403 fps=454 q=-0.0 size=N/A time=00:16:16.10 bitrate=N/A speed=18.9x    frame=23632 fps=454 q=-0.0 size=N/A time=00:16:25.65 bitrate=N/A speed=18.9x    frame=23900 fps=454 q=-0.0 size=N/A time=00:16:36.82 bitrate=N/A speed=  19x    frame=24151 fps=455 q=-0.0 size=N/A time=00:16:47.29 bitrate=N/A speed=  19x    frame=24343 fps=454 q=-0.0 size=N/A time=00:16:55.30 bitrate=N/A speed=18.9x    frame=24548 fps=453 q=-0.0 size=N/A time=00:17:03.85 bitrate=N/A speed=18.9x    frame=24787 fps=454 q=-0.0 size=N/A time=00:17:13.82 bitrate=N/A speed=18.9x    frame=25063 fps=454 q=-0.0 size=N/A time=00:17:25.33 bitrate=N/A speed=18.9x    frame=25323 fps=455 q=-0.0 size=N/A time=00:17:36.18 bitrate=N/A speed=  19x    frame=25572 fps=455 q=-0.0 size=N/A time=00:17:46.56 bitrate=N/A speed=  19x    frame=25830 fps=455 q=-0.0 size=N/A time=00:17:57.32 bitrate=N/A speed=  19x    frame=26071 fps=456 q=-0.0 size=N/A time=00:18:07.37 bitrate=N/A speed=  19x    frame=26350 fps=456 q=-0.0 size=N/A time=00:18:19.01 bitrate=N/A speed=  19x    frame=26610 fps=457 q=-0.0 size=N/A time=00:18:29.85 bitrate=N/A speed=19.1x    frame=26885 fps=457 q=-0.0 size=N/A time=00:18:41.32 bitrate=N/A speed=19.1x    frame=27143 fps=458 q=-0.0 size=N/A time=00:18:52.08 bitrate=N/A speed=19.1x    frame=27405 fps=458 q=-0.0 size=N/A time=00:19:03.01 bitrate=N/A speed=19.1x    frame=27671 fps=459 q=-0.0 size=N/A time=00:19:14.11 bitrate=N/A speed=19.1x    frame=27942 fps=459 q=-0.0 size=N/A time=00:19:25.41 bitrate=N/A speed=19.2x    frame=28210 fps=460 q=-0.0 size=N/A time=00:19:36.59 bitrate=N/A speed=19.2x    frame=28458 fps=460 q=-0.0 size=N/A time=00:19:46.93 bitrate=N/A speed=19.2x    frame=28734 fps=460 q=-0.0 size=N/A time=00:19:58.44 bitrate=N/A speed=19.2x    frame=29008 fps=461 q=-0.0 size=N/A time=00:20:09.87 bitrate=N/A speed=19.2x    frame=29275 fps=462 q=-0.0 size=N/A time=00:20:21.01 bitrate=N/A speed=19.2x    frame=29546 fps=462 q=-0.0 size=N/A time=00:20:32.31 bitrate=N/A speed=19.3x    frame=29821 fps=463 q=-0.0 size=N/A time=00:20:43.78 bitrate=N/A speed=19.3x    frame=30074 fps=463 q=-0.0 size=N/A time=00:20:54.33 bitrate=N/A speed=19.3x    frame=30351 fps=463 q=-0.0 size=N/A time=00:21:05.88 bitrate=N/A speed=19.3x    frame=30610 fps=464 q=-0.0 size=N/A time=00:21:16.69 bitrate=N/A speed=19.3x    frame=30864 fps=464 q=-0.0 size=N/A time=00:21:27.28 bitrate=N/A speed=19.3x    frame=31073 fps=463 q=-0.0 size=N/A time=00:21:36.00 bitrate=N/A speed=19.3x    frame=31287 fps=463 q=-0.0 size=N/A time=00:21:44.92 bitrate=N/A speed=19.3x    frame=31511 fps=463 q=-0.0 size=N/A time=00:21:54.27 bitrate=N/A speed=19.3x    frame=31742 fps=463 q=-0.0 size=N/A time=00:22:03.90 bitrate=N/A speed=19.3x    frame=31966 fps=462 q=-0.0 size=N/A time=00:22:13.24 bitrate=N/A speed=19.3x    frame=32197 fps=462 q=-0.0 size=N/A time=00:22:22.88 bitrate=N/A speed=19.3x    frame=32387 fps=462 q=-0.0 size=N/A time=00:22:30.80 bitrate=N/A speed=19.2x    frame=32564 fps=461 q=-0.0 size=N/A time=00:22:38.19 bitrate=N/A speed=19.2x    frame=32769 fps=460 q=-0.0 size=N/A time=00:22:46.74 bitrate=N/A speed=19.2x    frame=32964 fps=460 q=-0.0 size=N/A time=00:22:54.87 bitrate=N/A speed=19.2x    frame=33170 fps=459 q=-0.0 size=N/A time=00:23:03.46 bitrate=N/A speed=19.1x    frame=33388 fps=459 q=-0.0 size=N/A time=00:23:12.55 bitrate=N/A speed=19.1x    frame=33646 fps=459 q=-0.0 size=N/A time=00:23:23.31 bitrate=N/A speed=19.1x    frame=33875 fps=459 q=-0.0 size=N/A time=00:23:32.86 bitrate=N/A speed=19.1x    frame=34072 fps=458 q=-0.0 size=N/A time=00:23:41.08 bitrate=N/A speed=19.1x    frame=34270 fps=458 q=-0.0 size=N/A time=00:23:49.34 bitrate=N/A speed=19.1x    [Parsed_psnr_10 @ 0000027946ebdd40] PSNR y:48.462301 u:52.716306 v:52.320617 average:49.443361 min:39.866942 max:inf
[out#0/null @ 0000027946aad2c0] video:14800KiB audio:269380KiB subtitle:0KiB other streams:0KiB global headers:0KiB muxing overhead: unknown
frame=34443 fps=458 q=-0.0 Lsize=N/A time=00:23:56.56 bitrate=N/A speed=19.1x    
